<?xml version="1.0" encoding="UTF-8" standalone="no"?>
<!DOCTYPE svg PUBLIC "-//W3C//DTD SVG 1.1//EN" "http://www.w3.org/Graphics/SVG/1.1/DTD/svg11.dtd">
<svg version="1.1" xmlns="http://www.w3.org/2000/svg" xmlns:xlink="http://www.w3.org/1999/xlink" preserveAspectRatio="xMidYMid meet" viewBox="0 0 128 128" width="128" height="128"><defs><path d="M13.02 112.43C8.64 112.43 5.08 108.87 5.08 104.48C5.08 96.39 5.08 31.61 5.08 23.52C5.08 19.13 8.64 15.57 13.02 15.57C23.22 15.57 104.78 15.57 114.98 15.57C119.36 15.57 122.92 19.13 122.92 23.52C122.92 31.61 122.92 96.39 122.92 104.48C122.92 108.87 119.36 112.43 114.98 112.43C94.59 112.43 23.22 112.43 13.02 112.43Z" id="cMDCyed1r"></path><path d="M122.92 23.52C122.92 19.13 119.36 15.57 114.98 15.57C104.78 15.57 23.22 15.57 13.02 15.57C8.64 15.57 5.08 19.13 5.08 23.52C5.08 24.26 5.08 27.98 5.08 34.67C67.4 34.67 106.34 34.67 121.92 34.67C121.92 34.67 122.84 34.67 122.84 34.67C122.85 34.67 122.88 34.67 122.92 34.67C122.92 27.98 122.92 24.26 122.92 23.52Z" id="a2dpV59e4S"></path><path d="M36.89 95.5C36.42 93.83 35.76 92.25 34.93 90.77C35.1 90.56 36.43 88.85 36.59 88.64C37.43 87.57 37.33 86.04 36.37 85.08C35.95 84.66 32.54 81.25 32.11 80.82C31.15 79.86 29.63 79.77 28.56 80.6C28.35 80.76 26.63 82.09 26.42 82.26C24.95 81.44 23.37 80.78 21.72 80.31C21.69 80.04 21.42 77.89 21.38 77.62C21.22 76.28 20.07 75.27 18.72 75.27C18.11 75.27 13.29 75.27 12.69 75.27C11.33 75.27 10.19 76.27 10.02 77.62C9.98 77.89 9.71 80.03 9.68 80.3C8.06 80.76 6.52 81.4 5.08 82.19C5.08 83.35 5.08 92.63 5.08 93.79C7.47 90.51 11.33 88.39 15.69 88.39C22.93 88.39 28.81 94.26 28.81 101.51C28.81 106.06 26.48 110.07 22.96 112.43C23.77 112.43 27.81 112.43 35.08 112.43C34.99 112.31 34.94 112.25 34.93 112.24C35.76 110.77 36.42 109.19 36.88 107.54C37.15 107.51 39.3 107.24 39.57 107.2C40.92 107.03 41.93 105.89 41.93 104.53C41.93 103.93 41.93 99.11 41.93 98.5C41.93 97.15 40.92 96.01 39.57 95.84C39.04 95.77 37.16 95.53 36.89 95.5Z" id="a26SteZbLr"></path><path d="M28.76 112.43C31.24 109.41 32.74 105.55 32.74 101.33C32.74 91.69 24.92 83.88 15.28 83.88C11.47 83.88 7.95 85.1 5.08 87.17C5.08 87.83 5.08 93.12 5.08 93.79C7.47 90.51 11.33 88.39 15.69 88.39C22.93 88.39 28.81 94.26 28.81 101.51C28.81 106.06 26.48 110.07 22.96 112.43C24.12 112.43 28.18 112.43 28.76 112.43Z" id="aoji9awGb"></path><path d="M79.6 23.17C76.11 23.17 48.13 23.17 44.63 23.17C43.47 23.17 42.54 24.1 42.54 25.26C42.54 26.41 43.47 27.35 44.63 27.35C48.13 27.35 76.11 27.35 79.6 27.35C80.76 27.35 81.7 26.41 81.7 25.26C81.7 24.1 80.76 23.17 79.6 23.17Z" id="a5VqNIwhP"></path><path d="M15.57 22.75C14.18 22.75 13.06 23.87 13.06 25.26C13.06 26.65 14.18 27.77 15.57 27.77C16.96 27.77 18.09 26.65 18.09 25.26C18.09 23.87 16.96 22.75 15.57 22.75Z" id="a3QaRwAFo"></path><path d="M25.26 22.75C23.87 22.75 22.75 23.87 22.75 25.26C22.75 26.65 23.87 27.77 25.26 27.77C26.65 27.77 27.77 26.65 27.77 25.26C27.77 23.87 26.65 22.75 25.26 22.75Z" id="ajaUx6i95"></path><path d="M34.41 22.75C33.02 22.75 31.89 23.87 31.89 25.26C31.89 26.65 33.02 27.77 34.41 27.77C35.79 27.77 36.92 26.65 36.92 25.26C36.92 23.87 35.79 22.75 34.41 22.75Z" id="j421DxMK5m"></path><path d="M112.7 22.75C111.31 22.75 110.18 23.87 110.18 25.26C110.18 26.65 111.31 27.77 112.7 27.77C114.08 27.77 115.21 26.65 115.21 25.26C115.21 23.87 114.08 22.75 112.7 22.75Z" id="cRk9F98x2"></path><path d="M115.8 13.51L116.2 13.56L116.6 13.61L117 13.69L117.38 13.77L117.77 13.88L118.14 13.99L118.51 14.13L118.88 14.27L119.23 14.43L119.58 14.6L119.92 14.79L120.26 14.99L120.58 15.2L120.9 15.42L121.21 15.65L121.5 15.9L121.79 16.16L122.07 16.42L122.34 16.7L122.59 16.99L122.84 17.29L123.07 17.59L123.29 17.91L123.51 18.23L123.7 18.57L123.89 18.91L124.06 19.26L124.22 19.61L124.37 19.98L124.5 20.35L124.62 20.73L124.72 21.11L124.81 21.5L124.88 21.89L124.94 22.29L124.98 22.69L125 23.1L125.01 23.52L125.01 104.48L125 104.51L124.96 104.53L124.89 104.54L124.8 104.56L124.69 104.57L124.55 104.57L124.4 104.58L124.22 104.58L124.03 104.58L123.83 104.58L123.61 104.57L123.38 104.57L123.13 104.56L122.88 104.55L122.62 104.54L122.35 104.53L122.07 104.52L121.79 104.51L121.51 104.5L121.23 104.48L120.95 104.47L120.83 104.47L120.83 83.61L120.5 84.58L120.06 85.49L119.52 86.34L118.9 87.13L118.19 87.83L117.4 88.45L116.54 88.98L115.62 89.41L114.65 89.73L113.63 89.94L112.57 90.03L112.27 90.39L111.97 90.75L111.65 91.11L111.33 91.45L111 91.79L110.67 92.13L110.32 92.45L109.97 92.77L109.62 93.08L109.25 93.38L108.88 93.67L108.88 97.68L108.91 98.14L108.97 98.59L109.08 99.03L109.23 99.46L109.42 99.88L109.64 100.28L109.91 100.67L110.21 101.04L110.54 101.39L110.9 101.73L111.29 102.03L111.31 102.05L111.33 102.06L111.35 102.07L111.37 102.08L111.39 102.1L111.41 102.11L111.43 102.12L111.45 102.13L111.46 102.15L111.48 102.16L111.5 102.18L111.74 102.33L111.99 102.48L112.14 102.56L112.09 102.9L112.06 103.44L112.03 103.52L111.95 103.6L111.82 103.69L111.63 103.77L111.4 103.86L111.13 103.96L110.82 104.05L110.47 104.15L110.09 104.25L109.67 104.35L109.23 104.45L108.76 104.55L108.27 104.66L107.75 104.76L107.22 104.87L106.68 104.98L106.12 105.08L105.56 105.19L104.99 105.3L103.84 105.52L103.44 105.6L104.21 105.26L105.15 104.79L106.08 104.27L106.97 103.7L106.59 103.23L106.25 102.74L105.93 102.23L105.65 101.71L105.41 101.17L105.19 100.62L105.02 100.05L104.88 99.48L104.78 98.89L104.72 98.29L104.7 97.68L104.7 96.23L103.94 96.56L103.16 96.87L102.37 97.15L101.57 97.4L100.75 97.61L99.92 97.8L99.08 97.95L98.23 98.07L97.36 98.16L96.49 98.21L95.61 98.23L94.81 98.22L94.01 98.17L93.23 98.1L92.45 98L91.68 97.87L90.92 97.72L90.17 97.54L89.43 97.33L88.7 97.1L87.98 96.84L87.27 96.56L87.27 97.68L87.25 98.29L87.19 98.89L87.09 99.48L86.95 100.05L86.78 100.62L86.57 101.17L86.32 101.71L86.04 102.23L85.73 102.74L85.38 103.23L85 103.7L85.9 104.27L86.82 104.79L87.76 105.26L88.73 105.68L89.72 106.05L90.73 106.36L91.76 106.62L92.8 106.82L93.23 106.88L92.91 106.88L92.24 106.89L91.57 106.9L90.89 106.92L90.21 106.93L89.52 106.95L88.83 106.96L88.14 106.98L87.44 107L86.74 107.02L86.04 107.04L85.34 107.05L84.63 107.07L83.93 107.09L82.61 107.13L82.52 107.07L82.2 106.84L81.88 106.61L81.57 106.38L81.49 106.42L81.42 106.46L81.34 106.5L81.26 106.53L81.18 106.57L81.1 106.61L81.02 106.64L80.94 106.68L80.86 106.72L80.78 106.75L80.7 106.79L80.62 106.82L80.53 106.85L80.45 106.89L80.37 106.92L80.28 106.95L80.2 106.98L80.12 107.01L80.03 107.04L79.95 107.07L79.86 107.1L79.78 107.13L79.69 107.16L79.6 107.18L79.52 107.21L79.5 107.22L79 107.23L78.3 107.25L77.61 107.26L76.92 107.28L76.23 107.3L75.55 107.31L74.87 107.32L74.2 107.34L73.53 107.35L72.87 107.36L72.22 107.36L71.57 107.37L70.93 107.37L70.3 107.38L69.67 107.38L69.67 107.3L69.66 107.23L69.64 107.16L69.62 107.1L69.59 107.04L69.55 106.99L69.51 106.93L69.47 106.88L69.42 106.84L69.37 106.79L69.31 106.75L69.25 106.71L69.19 106.67L69.12 106.63L69.05 106.6L68.98 106.56L68.91 106.53L68.84 106.5L68.77 106.46L68.62 106.4L68.55 106.37L68.48 106.33L68.4 106.3L68.33 106.26L68.27 106.23L68.2 106.19L68.14 106.15L68.08 106.11L68.02 106.07L67.97 106.03L67.92 105.98L67.87 105.93L67.83 105.88L67.8 105.82L67.77 105.76L67.75 105.7L67.73 105.63L67.72 105.56L67.72 105.48L67.71 105.33L67.72 105.33L77.37 103.44L77.46 103.42L77.55 103.4L77.64 103.38L77.72 103.36L77.81 103.34L77.89 103.32L77.98 103.3L78.06 103.28L78.15 103.25L78.23 103.23L78.31 103.2L78.4 103.18L78.48 103.15L78.56 103.12L78.64 103.09L78.72 103.07L78.8 103.04L78.88 103.01L78.96 102.97L79.04 102.94L79.11 102.91L79.19 102.88L79.27 102.84L79.34 102.81L79.42 102.77L79.49 102.74L79.57 102.7L79.64 102.67L79.71 102.63L79.78 102.59L79.86 102.55L79.93 102.51L80 102.47L80.07 102.43L80.14 102.39L80.2 102.35L80.27 102.31L80.34 102.26L80.4 102.22L80.47 102.18L80.48 102.17L80.48 102.17L80.49 102.16L80.51 102.15L80.52 102.14L80.53 102.13L80.55 102.12L80.57 102.11L80.57 102.1L80.58 102.09L80.6 102.08L80.62 102.07L80.63 102.06L80.64 102.05L80.67 102.04L80.67 102.04L80.68 102.04L80.79 101.95L80.9 101.87L81 101.78L81.11 101.69L81.21 101.6L81.31 101.51L81.41 101.42L81.5 101.33L81.6 101.23L81.69 101.13L81.77 101.03L81.86 100.93L81.94 100.83L82.02 100.73L82.1 100.63L82.17 100.52L82.24 100.41L82.31 100.3L82.38 100.2L82.44 100.09L82.51 99.97L82.56 99.86L82.62 99.75L82.67 99.63L82.72 99.52L82.77 99.4L82.81 99.28L82.85 99.16L82.89 99.04L82.92 98.92L82.95 98.8L82.98 98.68L83.01 98.56L83.03 98.44L83.05 98.31L83.06 98.19L83.07 98.06L83.08 97.93L83.09 97.81L83.09 97.68L83.09 94.23L82.78 94.01L82.48 93.78L82.18 93.54L81.88 93.31L81.59 93.06L81.3 92.81L81.02 92.56L80.74 92.3L80.47 92.04L80.2 91.77L79.93 91.5L79.67 91.22L79.42 90.94L79.17 90.66L78.92 90.37L78.68 90.07L78.45 89.77L78.22 89.47L77.99 89.16L77.78 88.85L77.56 88.54L77.35 88.22L77.15 87.89L76.95 87.57L76.76 87.24L76.57 86.9L76.39 86.57L76.22 86.23L76.05 85.88L75.89 85.53L75.73 85.18L75.58 84.83L75.44 84.47L75.3 84.11L75.17 83.75L75.04 83.38L74.92 83.01L74.81 82.64L74.7 82.26L74.6 81.89L71.88 81.89L71.65 81.88L71.42 81.87L71.19 81.84L70.97 81.81L70.74 81.77L70.53 81.72L70.31 81.66L70.1 81.6L69.89 81.52L69.68 81.44L69.48 81.35L69.28 81.25L69.09 81.15L68.9 81.04L68.72 80.92L68.54 80.79L68.37 80.66L68.2 80.52L68.04 80.38L67.88 80.23L67.73 80.07L67.59 79.91L67.45 79.74L67.32 79.57L67.19 79.39L67.07 79.2L66.96 79.02L66.85 78.82L66.76 78.63L66.67 78.43L66.59 78.22L66.51 78.01L66.44 77.8L66.39 77.58L66.34 77.36L66.3 77.14L66.26 76.92L66.24 76.69L66.23 76.46L66.22 76.22L66.22 65.61L66.22 65.43L66.23 65.26L66.25 65.09L66.26 64.92L66.29 64.75L66.32 64.58L66.35 64.42L66.39 64.25L66.43 64.09L66.48 63.93L66.53 63.77L66.58 63.62L66.64 63.46L66.71 63.31L66.78 63.16L66.85 63.01L66.93 62.87L67.01 62.73L67.1 62.59L67.19 62.45L67.28 62.32L67.38 62.19L67.48 62.06L67.58 61.93L67.69 61.81L67.8 61.69L67.92 61.58L68.03 61.46L68.15 61.35L68.28 61.25L68.4 61.15L68.53 61.05L68.67 60.95L68.8 60.86L68.94 60.77L69.08 60.69L69.23 60.61L69.37 60.54L69.52 60.47L69.67 60.4L69.67 60.25L69.66 60.1L69.66 59.95L69.66 59.8L69.66 59.65L69.66 59.5L69.66 59.35L69.66 59.19L69.66 59.04L69.66 58.89L69.67 58.74L69.67 58.59L69.68 58.44L69.69 58.29L69.69 58.14L69.7 57.99L69.71 57.84L69.72 57.69L69.73 57.54L69.74 57.39L69.76 57.24L69.77 57.09L69.79 56.94L69.8 56.8L69.82 56.65L69.84 56.5L69.86 56.35L69.87 56.2L69.9 56.05L69.92 55.9L69.94 55.75L69.96 55.6L69.99 55.45L70.01 55.31L70.04 55.16L70.06 55.01L70.09 54.86L70.12 54.71L70.15 54.57L70.18 54.42L70.22 54.2L70.27 53.98L70.32 53.77L70.37 53.55L70.43 53.34L70.48 53.12L70.54 52.91L70.6 52.7L70.66 52.49L70.72 52.27L70.79 52.06L70.85 51.85L70.92 51.64L70.99 51.43L71.06 51.23L71.14 51.02L71.21 50.81L71.29 50.61L71.37 50.4L71.45 50.19L71.53 49.99L71.62 49.79L71.7 49.58L71.79 49.38L71.88 49.18L71.97 48.98L72.07 48.78L72.16 48.58L72.26 48.38L72.36 48.19L72.46 47.99L72.56 47.79L72.67 47.6L72.77 47.4L72.88 47.21L72.99 47.02L73.1 46.83L73.21 46.63L73.33 46.44L73.44 46.25L73.45 46.24L73.46 46.23L73.46 46.22L73.47 46.22L73.47 46.21L73.48 46.2L73.6 45.99L73.73 45.78L73.86 45.57L73.99 45.36L74.12 45.16L74.25 44.95L74.39 44.75L74.52 44.55L74.66 44.35L74.8 44.16L74.94 43.96L75.07 43.77L75.22 43.57L75.36 43.38L75.5 43.19L75.64 43.01L75.79 42.82L75.93 42.64L76.08 42.46L76.23 42.28L76.38 42.1L76.53 41.92L76.68 41.74L76.83 41.57L76.99 41.4L77.14 41.23L77.3 41.06L77.45 40.89L77.61 40.73L77.77 40.57L77.93 40.4L78.09 40.25L78.25 40.09L78.42 39.93L78.58 39.78L78.74 39.63L78.91 39.48L79.08 39.33L79.25 39.18L79.41 39.03L79.55 38.97L79.78 38.91L80.12 38.84L80.55 38.78L81.07 38.71L81.67 38.65L82.35 38.59L83.1 38.53L83.92 38.47L84.8 38.4L85.74 38.34L86.72 38.28L87.75 38.22L88.82 38.16L89.43 38.13L89.05 38.26L88.1 38.62L87.12 39.04L86.12 39.53L85.12 40.09L84.12 40.72L83.12 41.43L82.13 42.22L81.89 42.42L81.66 42.63L81.43 42.84L81.2 43.05L80.98 43.27L80.76 43.5L80.54 43.73L80.32 43.96L80.1 44.19L79.89 44.44L79.68 44.68L79.47 44.93L79.26 45.18L79.05 45.44L78.85 45.7L78.65 45.97L78.45 46.24L78.26 46.51L78.06 46.79L77.87 47.07L84.47 54.18L85.33 54.84L86.2 55.47L87.08 56.07L87.98 56.64L88.89 57.17L89.81 57.68L90.74 58.15L91.69 58.58L92.64 58.99L93.61 59.36L94.59 59.7L95.57 60L96.56 60.27L97.56 60.5L98.57 60.7L99.58 60.87L100.6 60.99L101.63 61.09L102.66 61.14L103.69 61.16L104.14 61.15L104.61 61.13L105.11 61.1L105.64 61.05L106.19 61L106.75 60.93L107.33 60.84L107.92 60.75L108.5 60.64L109.09 60.53L109.68 60.4L110.25 60.26L110.82 60.11L111.36 59.95L111.89 59.79L112.38 59.61L112.85 59.42L113.29 59.22L113.69 59.02L114.05 58.8L114.05 58.8L114.06 58.79L114.07 58.79L114.08 58.78L114.1 58.77L114.12 58.76L114.13 58.75L114.14 58.75L114.18 58.72L114.23 58.69L114.28 58.67L114.33 58.65L114.38 58.62L114.43 58.6L114.48 58.58L114.53 58.57L114.58 58.55L114.64 58.53L114.69 58.52L114.74 58.51L114.8 58.5L114.85 58.49L114.91 58.48L114.96 58.47L115.02 58.47L115.08 58.46L115.14 58.46L115.19 58.46L115.33 58.46L115.47 58.48L115.61 58.5L115.74 58.53L115.87 58.57L115.99 58.62L116.12 58.67L116.23 58.73L116.34 58.8L116.45 58.88L116.55 58.96L116.65 59.05L116.74 59.15L116.83 59.25L116.91 59.35L116.98 59.46L117.04 59.58L117.1 59.7L117.15 59.82L117.2 59.95L119.16 59.95L119.12 59.91L119.08 59.87L119.04 59.82L119 59.78L118.96 59.74L118.92 59.69L118.89 59.64L118.85 59.6L118.82 59.55L118.79 59.5L118.76 59.45L118.73 59.39L118.7 59.34L118.67 59.29L118.65 59.23L118.62 59.17L118.6 59.12L118.58 59.06L118.56 59L118.54 58.94L118.27 57.96L117.98 57L117.67 56.06L117.35 55.15L117.01 54.25L116.66 53.38L116.29 52.53L115.91 51.7L115.51 50.89L115.1 50.1L114.68 49.34L114.23 48.6L113.78 47.88L113.3 47.18L112.82 46.51L112.32 45.86L111.8 45.23L111.27 44.62L110.73 44.04L110.17 43.48L109.53 42.88L108.89 42.31L108.24 41.77L107.58 41.25L106.92 40.77L106.26 40.31L105.59 39.88L104.91 39.48L104.23 39.11L103.55 38.76L102.86 38.45L102.16 38.16L101.46 37.91L100.76 37.68L100.44 37.59L101.54 37.54L102.65 37.49L103.71 37.43L104.74 37.38L105.73 37.32L106.67 37.27L107.55 37.22L108.36 37.17L109.12 37.12L109.8 37.07L110.4 37.01L110.92 36.96L111.35 36.91L111.69 36.86L111.93 36.82L112.06 36.77L75.25 36.77L75.16 36.77L75.08 36.76L74.99 36.75L74.91 36.74L74.83 36.72L74.75 36.71L74.67 36.68L74.59 36.66L74.51 36.63L74.43 36.6L74.36 36.57L74.29 36.53L74.22 36.49L74.15 36.45L74.08 36.41L74.01 36.36L73.95 36.31L73.89 36.26L73.83 36.21L73.77 36.15L73.71 36.1L73.66 36.04L73.61 35.97L73.56 35.91L73.51 35.84L73.47 35.78L73.43 35.71L73.39 35.64L73.35 35.56L73.32 35.49L73.29 35.41L73.26 35.34L73.24 35.26L73.22 35.18L73.2 35.1L73.18 35.01L73.17 34.93L73.16 34.85L73.16 34.76L73.16 34.67L73.16 34.59L73.16 34.5L73.17 34.42L73.18 34.34L73.2 34.25L73.22 34.17L73.24 34.09L73.26 34.01L73.29 33.94L73.32 33.86L73.35 33.79L73.39 33.71L73.43 33.64L73.47 33.57L73.51 33.51L73.56 33.44L73.61 33.38L73.66 33.31L73.71 33.25L73.77 33.2L73.83 33.14L73.89 33.09L73.95 33.04L74.01 32.99L74.08 32.94L74.15 32.9L74.22 32.86L74.29 32.82L74.36 32.78L74.43 32.75L74.51 32.72L74.59 32.69L74.67 32.67L74.75 32.64L74.83 32.63L74.91 32.61L74.99 32.6L75.08 32.59L75.16 32.58L75.25 32.58L120.83 32.58L120.83 23.52L120.82 23.28L120.81 23.04L120.78 22.8L120.75 22.57L120.71 22.34L120.66 22.11L120.6 21.89L120.53 21.67L120.45 21.45L120.37 21.24L120.27 21.03L120.17 20.83L120.06 20.63L119.95 20.44L119.83 20.25L119.7 20.06L119.56 19.88L119.42 19.71L119.27 19.54L119.11 19.38L118.95 19.23L118.78 19.08L118.61 18.93L118.43 18.8L118.24 18.67L118.06 18.54L117.86 18.43L117.66 18.32L117.46 18.22L117.25 18.13L117.04 18.04L116.82 17.96L116.6 17.9L116.38 17.84L116.15 17.78L115.92 17.74L115.69 17.71L115.45 17.68L115.22 17.67L114.98 17.67L13.02 17.67L12.78 17.67L12.55 17.68L12.31 17.71L12.08 17.74L11.85 17.78L11.62 17.84L11.4 17.9L11.18 17.96L10.96 18.04L10.75 18.13L10.54 18.22L10.34 18.32L10.14 18.43L9.94 18.54L9.76 18.67L9.57 18.8L9.39 18.93L9.22 19.08L9.05 19.23L8.89 19.38L8.73 19.54L8.58 19.71L8.44 19.88L8.3 20.06L8.17 20.25L8.05 20.44L7.94 20.63L7.83 20.83L7.73 21.03L7.63 21.24L7.55 21.45L7.47 21.67L7.4 21.89L7.34 22.11L7.29 22.34L7.25 22.57L7.22 22.8L7.19 23.04L7.18 23.28L7.17 23.52L7.17 32.58L65.03 32.58L65.12 32.58L65.2 32.59L65.29 32.6L65.37 32.61L65.45 32.63L65.53 32.64L65.61 32.67L65.69 32.69L65.77 32.72L65.84 32.75L65.92 32.78L65.99 32.82L66.06 32.86L66.13 32.9L66.2 32.94L66.27 32.99L66.33 33.04L66.39 33.09L66.45 33.14L66.51 33.2L66.57 33.25L66.62 33.31L66.67 33.38L66.72 33.44L66.76 33.51L66.81 33.57L66.85 33.64L66.89 33.71L66.92 33.79L66.96 33.86L66.99 33.94L67.02 34.01L67.04 34.09L67.06 34.17L67.08 34.25L67.09 34.34L67.11 34.42L67.12 34.5L67.12 34.59L67.12 34.67L67.12 34.76L67.12 34.85L67.11 34.93L67.09 35.01L67.08 35.1L67.06 35.18L67.04 35.26L67.02 35.34L66.99 35.41L66.96 35.49L66.92 35.56L66.89 35.64L66.85 35.71L66.81 35.78L66.76 35.84L66.72 35.91L66.67 35.97L66.62 36.04L66.57 36.1L66.51 36.15L66.45 36.21L66.39 36.26L66.33 36.31L66.27 36.36L66.2 36.41L66.13 36.45L66.06 36.49L65.99 36.53L65.92 36.57L65.84 36.6L65.77 36.63L65.69 36.66L65.61 36.68L65.53 36.71L65.45 36.72L65.37 36.74L65.29 36.75L65.2 36.76L65.12 36.77L65.03 36.77L7.17 36.77L7.17 78.93L7.2 78.92L7.23 78.91L7.28 78.89L7.35 78.87L7.41 78.84L7.44 78.83L7.49 78.81L7.53 78.8L7.56 78.79L7.58 78.78L7.61 78.77L7.64 78.76L7.65 78.75L7.68 78.74L7.7 78.74L7.73 78.73L7.74 78.72L7.77 78.71L7.94 77.36L7.97 77.18L8 77L8.04 76.83L8.08 76.66L8.13 76.49L8.19 76.33L8.25 76.17L8.32 76.01L8.39 75.85L8.47 75.7L8.56 75.55L8.65 75.4L8.74 75.26L8.84 75.12L8.94 74.99L9.05 74.85L9.16 74.73L9.28 74.6L9.4 74.49L9.53 74.37L9.65 74.26L9.79 74.16L9.92 74.06L10.06 73.96L10.21 73.87L10.35 73.78L10.5 73.7L10.66 73.63L10.81 73.56L10.97 73.49L11.13 73.43L11.3 73.38L11.46 73.33L11.63 73.29L11.8 73.26L11.98 73.23L12.15 73.2L12.33 73.19L12.51 73.18L12.69 73.17L18.72 73.17L18.9 73.18L19.07 73.19L19.25 73.2L19.43 73.23L19.6 73.26L19.77 73.29L19.94 73.33L20.11 73.38L20.27 73.43L20.43 73.49L20.59 73.56L20.75 73.63L20.9 73.7L21.05 73.78L21.2 73.87L21.34 73.96L21.48 74.06L21.62 74.16L21.75 74.26L21.88 74.37L22 74.49L22.13 74.61L22.24 74.73L22.35 74.86L22.46 74.99L22.57 75.12L22.67 75.26L22.76 75.4L22.85 75.55L22.93 75.7L23.01 75.85L23.08 76.01L23.15 76.17L23.21 76.33L23.27 76.5L23.32 76.66L23.36 76.84L23.4 77.01L23.44 77.18L23.46 77.36L23.63 78.72L23.7 78.74L23.76 78.77L23.83 78.79L23.89 78.81L23.96 78.84L24.02 78.86L24.09 78.88L24.15 78.91L24.22 78.93L24.28 78.96L24.35 78.98L24.41 79.01L24.48 79.03L24.54 79.06L24.6 79.08L24.67 79.11L24.73 79.14L24.8 79.16L24.86 79.19L24.93 79.21L24.99 79.24L25.05 79.27L25.12 79.3L25.18 79.32L25.25 79.35L25.31 79.38L25.37 79.41L25.44 79.43L25.5 79.46L25.56 79.49L25.63 79.52L25.69 79.55L25.75 79.58L25.82 79.61L25.88 79.64L25.94 79.66L26.01 79.69L26.07 79.72L26.13 79.75L26.19 79.78L27.28 78.94L27.42 78.84L27.57 78.73L27.72 78.64L27.87 78.55L28.02 78.47L28.18 78.39L28.34 78.32L28.5 78.26L28.66 78.2L28.83 78.14L28.99 78.1L29.16 78.06L29.32 78.02L29.49 78L29.66 77.97L29.83 77.96L30 77.95L30.17 77.94L30.34 77.94L30.51 77.95L30.68 77.97L30.85 77.98L31.01 78.01L31.18 78.04L31.35 78.08L31.51 78.12L31.67 78.17L31.84 78.23L32 78.29L32.15 78.35L32.31 78.43L32.46 78.5L32.61 78.59L32.76 78.68L32.91 78.77L33.05 78.88L33.19 78.98L33.33 79.1L33.46 79.22L33.59 79.34L37.85 83.6L37.98 83.73L38.1 83.87L38.21 84L38.32 84.14L38.42 84.29L38.52 84.43L38.61 84.58L38.69 84.73L38.77 84.89L38.84 85.04L38.91 85.2L38.97 85.36L39.02 85.52L39.07 85.68L39.11 85.85L39.15 86.02L39.18 86.18L39.21 86.35L39.23 86.52L39.24 86.69L39.25 86.86L39.25 87.03L39.25 87.2L39.24 87.37L39.22 87.54L39.2 87.7L39.17 87.87L39.13 88.04L39.09 88.21L39.05 88.37L38.99 88.54L38.94 88.7L38.87 88.86L38.8 89.02L38.72 89.17L38.64 89.33L38.55 89.48L38.46 89.63L38.35 89.78L38.25 89.92L37.41 91L37.44 91.06L37.47 91.12L37.5 91.19L37.53 91.25L37.56 91.32L37.59 91.38L37.62 91.44L37.65 91.51L37.68 91.57L37.7 91.63L37.73 91.7L37.76 91.76L37.79 91.83L37.82 91.89L37.85 91.96L37.87 92.02L37.9 92.08L37.93 92.15L37.96 92.21L37.98 92.28L38.01 92.34L38.04 92.41L38.06 92.47L38.09 92.54L38.12 92.6L38.14 92.67L38.17 92.73L38.19 92.8L38.22 92.87L38.24 92.93L38.27 93L38.29 93.06L38.32 93.13L38.34 93.19L38.36 93.26L38.39 93.33L38.41 93.39L38.44 93.46L38.46 93.52L38.48 93.59L39.84 93.76L40.01 93.79L40.19 93.82L40.36 93.86L40.53 93.9L40.7 93.95L40.87 94.01L41.03 94.07L41.19 94.14L41.34 94.21L41.5 94.29L41.65 94.37L41.79 94.46L41.93 94.56L42.07 94.66L42.21 94.76L42.34 94.87L42.47 94.98L42.59 95.1L42.71 95.22L42.82 95.34L42.93 95.47L43.04 95.61L43.14 95.74L43.23 95.88L43.32 96.03L43.41 96.17L43.49 96.32L43.57 96.48L43.64 96.63L43.7 96.79L43.76 96.95L43.81 97.12L43.86 97.28L43.9 97.45L43.94 97.62L43.97 97.8L43.99 97.97L44.01 98.15L44.02 98.32L44.02 98.5L44.02 104.53L44.02 104.71L44.01 104.89L43.99 105.07L43.97 105.24L43.94 105.42L43.9 105.59L43.86 105.76L43.81 105.92L43.76 106.09L43.7 106.25L43.64 106.41L43.57 106.56L43.49 106.72L43.41 106.87L43.32 107.01L43.23 107.16L43.14 107.3L43.04 107.43L42.93 107.57L42.82 107.7L42.71 107.82L42.59 107.94L42.46 108.06L42.34 108.17L42.21 108.28L42.07 108.38L41.93 108.48L41.79 108.58L41.64 108.67L41.49 108.75L41.34 108.83L41.18 108.9L41.02 108.97L40.86 109.03L40.7 109.09L40.53 109.14L40.36 109.18L40.18 109.22L40.01 109.25L39.83 109.28L38.47 109.45L38.47 109.47L38.46 109.49L38.45 109.51L38.44 109.54L38.43 109.56L38.42 109.6L38.4 109.65L38.39 109.69L38.37 109.74L38.35 109.78L38.34 109.83L38.33 109.85L38.31 109.89L38.3 109.94L38.28 109.98L38.27 110L38.25 110.05L38.25 110.07L38.23 110.11L38.22 110.14L38.2 110.18L38.19 110.2L38.18 110.25L38.17 110.27L38.15 110.31L38.14 110.33L47.74 110.33L47.82 110.34L47.91 110.34L47.99 110.35L48.08 110.36L48.16 110.38L48.24 110.4L48.32 110.42L48.4 110.44L48.48 110.47L48.55 110.5L48.63 110.53L48.7 110.57L48.77 110.61L48.84 110.65L48.91 110.69L48.97 110.74L49.04 110.79L49.1 110.84L49.16 110.89L49.22 110.95L49.27 111.01L49.33 111.07L49.38 111.13L49.43 111.19L49.47 111.26L49.52 111.32L49.56 111.39L49.6 111.47L49.63 111.54L49.67 111.61L49.7 111.69L49.72 111.77L49.75 111.84L49.77 111.92L49.79 112L49.8 112.09L49.81 112.17L49.82 112.25L49.83 112.34L49.83 112.43L49.83 112.51L49.82 112.6L49.81 112.68L49.8 112.77L49.79 112.85L49.77 112.93L49.75 113.01L49.72 113.09L49.7 113.17L49.67 113.24L49.63 113.32L49.6 113.39L49.56 113.46L49.52 113.53L49.47 113.6L49.43 113.66L49.38 113.73L49.33 113.79L49.27 113.85L49.22 113.91L49.16 113.96L49.1 114.01L49.04 114.07L48.97 114.11L48.91 114.16L48.84 114.2L48.77 114.25L48.7 114.28L48.63 114.32L48.55 114.35L48.48 114.38L48.4 114.41L48.32 114.44L48.24 114.46L48.16 114.48L48.08 114.49L47.99 114.5L47.91 114.51L47.82 114.52L47.74 114.52L13.02 114.52L12.61 114.51L12.2 114.49L11.8 114.44L11.4 114.39L11 114.31L10.62 114.23L10.23 114.12L9.86 114.01L9.49 113.87L9.12 113.73L8.77 113.57L8.42 113.4L8.08 113.21L7.74 113.01L7.42 112.8L7.1 112.58L6.79 112.35L6.5 112.1L6.21 111.84L5.93 111.58L5.66 111.3L5.41 111.01L5.16 110.71L4.93 110.41L4.71 110.09L4.49 109.77L4.3 109.43L4.11 109.09L3.94 108.74L3.78 108.39L3.63 108.02L3.5 107.65L3.38 107.27L3.28 106.89L3.19 106.5L3.12 106.11L3.06 105.71L3.02 105.31L3 104.9L2.99 104.48L2.99 23.52L3 23.1L3.02 22.69L3.06 22.29L3.12 21.89L3.19 21.5L3.28 21.11L3.38 20.73L3.5 20.35L3.63 19.98L3.78 19.61L3.94 19.26L4.11 18.91L4.3 18.57L4.49 18.23L4.71 17.91L4.93 17.59L5.16 17.29L5.41 16.99L5.66 16.7L5.93 16.42L6.21 16.16L6.5 15.9L6.79 15.65L7.1 15.42L7.42 15.2L7.74 14.99L8.08 14.79L8.42 14.6L8.77 14.43L9.12 14.27L9.49 14.13L9.86 13.99L10.23 13.88L10.62 13.77L11 13.69L11.4 13.61L11.8 13.56L12.2 13.51L12.61 13.49L13.02 13.48L114.98 13.48L115.39 13.49L115.8 13.51ZM12.65 77.36L12.61 77.36L12.58 77.37L12.54 77.38L12.51 77.39L12.47 77.4L12.44 77.41L12.41 77.43L12.38 77.44L12.35 77.46L12.32 77.48L12.29 77.51L12.27 77.53L12.24 77.56L12.22 77.58L12.2 77.61L12.18 77.64L12.16 77.67L12.14 77.71L12.13 77.74L12.12 77.77L12.11 77.81L12.1 77.84L12.09 77.88L11.75 80.56L11.74 80.67L11.72 80.77L11.69 80.87L11.66 80.97L11.63 81.06L11.59 81.16L11.55 81.25L11.5 81.34L11.45 81.42L11.39 81.51L11.33 81.59L11.27 81.67L11.2 81.74L11.13 81.81L11.05 81.88L10.97 81.94L10.89 82.01L10.81 82.06L10.72 82.12L10.63 82.16L10.54 82.21L10.45 82.25L10.35 82.28L10.25 82.32L10.12 82.35L9.99 82.39L9.86 82.43L9.73 82.47L9.6 82.51L9.47 82.55L9.34 82.6L9.21 82.64L9.08 82.69L8.95 82.73L8.82 82.78L8.69 82.83L8.56 82.88L8.43 82.93L8.31 82.98L8.18 83.03L8.05 83.08L7.93 83.13L7.8 83.19L7.67 83.24L7.55 83.3L7.42 83.36L7.3 83.41L7.17 83.47L7.17 88.91L7.49 88.7L7.8 88.51L8.13 88.32L8.46 88.13L8.79 87.96L9.12 87.79L9.46 87.64L9.81 87.49L10.15 87.34L10.5 87.21L10.86 87.09L11.22 86.97L11.58 86.87L11.94 86.77L12.3 86.68L12.67 86.6L13.04 86.53L13.42 86.47L13.79 86.42L14.17 86.37L14.54 86.34L14.92 86.31L15.31 86.3L15.69 86.29L16.73 86.33L17.75 86.43L18.75 86.6L19.73 86.84L20.68 87.14L21.6 87.49L22.5 87.91L23.36 88.37L24.19 88.9L24.98 89.47L25.73 90.09L26.44 90.76L27.11 91.47L27.73 92.22L28.3 93.01L28.82 93.83L29.29 94.7L29.7 95.59L30.06 96.52L30.35 97.47L30.59 98.44L30.76 99.45L30.86 100.47L30.9 101.51L30.89 101.91L30.88 102.31L30.85 102.71L30.82 103.1L30.77 103.49L30.71 103.89L30.65 104.27L30.57 104.66L30.48 105.04L30.39 105.42L30.28 105.8L30.17 106.17L30.04 106.54L29.91 106.91L29.77 107.27L29.61 107.63L29.45 107.99L29.28 108.34L29.1 108.68L28.92 109.02L28.72 109.36L28.51 109.69L28.3 110.02L28.08 110.34L33.57 110.34L33.64 110.2L33.7 110.06L33.77 109.93L33.83 109.79L33.89 109.65L33.96 109.51L34.02 109.38L34.07 109.24L34.13 109.1L34.19 108.96L34.25 108.82L34.3 108.68L34.35 108.54L34.41 108.4L34.46 108.26L34.51 108.11L34.56 107.97L34.61 107.83L34.65 107.69L34.7 107.54L34.74 107.4L34.79 107.26L34.83 107.11L34.87 106.97L34.9 106.87L34.94 106.77L34.98 106.68L35.02 106.58L35.07 106.49L35.13 106.41L35.18 106.32L35.24 106.24L35.31 106.16L35.38 106.09L35.45 106.02L35.52 105.95L35.6 105.89L35.68 105.83L35.77 105.77L35.85 105.72L35.94 105.67L36.03 105.63L36.13 105.59L36.22 105.55L36.32 105.52L36.42 105.5L36.52 105.48L36.63 105.46L39.31 105.13L39.35 105.12L39.39 105.11L39.42 105.1L39.45 105.09L39.49 105.08L39.52 105.06L39.55 105.04L39.58 105.02L39.61 105L39.64 104.98L39.66 104.96L39.69 104.93L39.71 104.9L39.73 104.87L39.75 104.84L39.77 104.81L39.78 104.78L39.8 104.75L39.81 104.72L39.82 104.68L39.83 104.64L39.83 104.61L39.83 104.57L39.84 104.53L39.84 98.5L39.83 98.47L39.83 98.43L39.83 98.39L39.82 98.36L39.81 98.32L39.8 98.29L39.78 98.26L39.77 98.23L39.75 98.19L39.73 98.17L39.71 98.14L39.69 98.11L39.66 98.08L39.64 98.06L39.61 98.04L39.58 98.02L39.55 98L39.52 97.98L39.49 97.96L39.46 97.95L39.42 97.94L39.39 97.93L39.35 97.92L39.31 97.91L36.63 97.57L36.53 97.56L36.42 97.54L36.32 97.51L36.23 97.48L36.13 97.45L36.04 97.41L35.95 97.36L35.86 97.32L35.77 97.26L35.69 97.21L35.61 97.15L35.53 97.08L35.45 97.02L35.38 96.95L35.31 96.87L35.25 96.79L35.19 96.71L35.13 96.63L35.08 96.54L35.03 96.45L34.99 96.36L34.95 96.26L34.91 96.17L34.88 96.07L34.83 95.88L34.77 95.7L34.71 95.51L34.65 95.33L34.59 95.15L34.53 94.96L34.47 94.78L34.4 94.6L34.33 94.42L34.26 94.24L34.19 94.06L34.12 93.88L34.04 93.7L33.97 93.53L33.89 93.35L33.81 93.17L33.73 93L33.64 92.82L33.56 92.65L33.47 92.48L33.38 92.31L33.29 92.13L33.2 91.96L33.11 91.79L33.06 91.7L33.01 91.61L32.98 91.51L32.94 91.41L32.91 91.32L32.89 91.22L32.87 91.12L32.86 91.02L32.85 90.92L32.84 90.82L32.84 90.72L32.85 90.62L32.86 90.52L32.87 90.42L32.89 90.32L32.92 90.22L32.95 90.12L32.98 90.03L33.02 89.93L33.06 89.84L33.11 89.75L33.16 89.66L33.22 89.57L33.28 89.49L34.94 87.35L34.97 87.32L34.99 87.29L35 87.26L35.02 87.23L35.03 87.19L35.04 87.16L35.05 87.12L35.06 87.09L35.07 87.05L35.07 87.02L35.07 86.98L35.07 86.95L35.07 86.91L35.06 86.88L35.05 86.84L35.04 86.81L35.03 86.78L35.02 86.74L35 86.71L34.99 86.68L34.97 86.65L34.94 86.62L34.92 86.59L34.9 86.56L30.63 82.3L30.6 82.27L30.58 82.25L30.55 82.23L30.52 82.21L30.48 82.19L30.45 82.18L30.42 82.16L30.39 82.15L30.35 82.14L30.32 82.13L30.28 82.13L30.25 82.13L30.21 82.12L30.18 82.13L30.14 82.13L30.11 82.13L30.07 82.14L30.04 82.15L30 82.16L29.97 82.17L29.94 82.19L29.9 82.21L29.87 82.23L29.84 82.25L27.7 83.91L27.62 83.97L27.53 84.03L27.44 84.08L27.35 84.13L27.26 84.18L27.16 84.21L27.07 84.25L26.97 84.28L26.87 84.3L26.77 84.32L26.68 84.34L26.58 84.35L26.47 84.35L26.37 84.35L26.27 84.35L26.17 84.34L26.07 84.32L25.97 84.3L25.87 84.28L25.78 84.25L25.68 84.22L25.58 84.18L25.49 84.13L25.4 84.09L25.23 83.99L25.06 83.9L24.89 83.81L24.72 83.72L24.55 83.64L24.37 83.55L24.2 83.47L24.02 83.39L23.85 83.31L23.67 83.23L23.5 83.15L23.32 83.08L23.14 83.01L22.96 82.93L22.78 82.87L22.61 82.8L22.43 82.73L22.24 82.67L22.06 82.61L21.88 82.55L21.7 82.49L21.52 82.43L21.33 82.37L21.15 82.32L21.05 82.29L20.95 82.25L20.86 82.21L20.76 82.17L20.67 82.12L20.59 82.07L20.5 82.01L20.42 81.95L20.35 81.89L20.27 81.82L20.2 81.75L20.13 81.67L20.07 81.59L20.01 81.51L19.95 81.43L19.9 81.34L19.85 81.25L19.81 81.16L19.77 81.07L19.74 80.97L19.71 80.87L19.68 80.77L19.66 80.67L19.65 80.57L19.31 77.88L19.3 77.84L19.3 77.81L19.29 77.77L19.27 77.74L19.26 77.71L19.24 77.67L19.23 77.64L19.21 77.61L19.18 77.58L19.16 77.56L19.14 77.53L19.11 77.51L19.08 77.48L19.06 77.46L19.03 77.44L19 77.43L18.96 77.41L18.93 77.4L18.9 77.39L18.86 77.38L18.83 77.37L18.79 77.36L18.75 77.36L18.72 77.36L12.69 77.36L12.65 77.36ZM14.18 90.58L13.44 90.71L12.72 90.89L12.01 91.11L11.32 91.39L10.65 91.71L10 92.07L9.37 92.47L8.77 92.92L8.21 93.41L7.67 93.94L7.17 94.5L7.17 104.48L7.22 105.22L7.35 105.92L7.57 106.6L7.86 107.23L8.22 107.82L8.65 108.37L9.14 108.86L9.68 109.28L10.28 109.65L10.91 109.94L11.59 110.16L12.29 110.29L13.02 110.33L22.29 110.33L22.91 109.83L23.49 109.29L24.03 108.72L24.52 108.11L24.97 107.47L25.36 106.79L25.72 106.1L26.02 105.38L26.26 104.63L26.46 103.87L26.6 103.1L26.69 102.31L26.72 101.51L26.63 100.12L26.38 98.79L25.97 97.52L25.42 96.33L24.74 95.21L23.93 94.19L23.01 93.26L21.98 92.46L20.87 91.77L19.67 91.22L18.4 90.81L17.07 90.56L15.69 90.48L14.93 90.5L14.18 90.58ZM97.26 107.09L97.27 107.14L97.28 107.18L97.28 107.23L97.28 107.27L97.28 107.32L97.27 107.37L97.26 107.41L97.24 107.46L97.22 107.5L97.2 107.55L97.18 107.59L97.16 107.63L97.13 107.66L97.1 107.69L97.08 107.72L97.05 107.74L97.02 107.76L96.99 107.77L96.96 107.78L96.93 107.78L96.91 107.78L96.88 107.77L96.86 107.75L96.84 107.72L96.82 107.69L96.8 107.64L96.79 107.59L96.78 107.53L96.77 107.46L96.77 107.38L96.8 107.3L96.88 107.22L97.02 107.13L97.2 107.04L97.22 107.04L97.23 107.04L97.24 107.05L97.26 107.09ZM66.46 102.39L66.66 102.49L66.86 102.62L67.04 102.8L67.2 103.02L67.35 103.29L67.47 103.62L67.58 104L67.65 104.43L67.7 104.93L67.71 105.33L67.08 105.44L66.5 105.51L65.99 105.55L65.54 105.55L65.15 105.52L64.81 105.46L64.52 105.37L64.28 105.27L64.09 105.14L63.94 104.99L63.83 104.83L63.77 104.65L63.74 104.47L63.74 104.28L63.78 104.08L63.85 103.88L63.94 103.68L64.06 103.49L64.2 103.3L64.36 103.12L64.53 102.95L64.72 102.8L64.93 102.66L65.14 102.54L65.36 102.45L65.58 102.38L65.8 102.33L66.02 102.32L66.24 102.34L66.46 102.39ZM118.62 104.39L118.84 104.39L119.08 104.4L119.32 104.41L119.58 104.42L119.59 104.42L120.06 104.51L120.05 104.52L119.88 104.62L119.65 104.69L119.36 104.72L118.99 104.72L118.54 104.69L118.02 104.61L117.42 104.48L117.44 104.46L117.48 104.44L117.55 104.42L117.64 104.41L117.76 104.4L117.89 104.39L118.05 104.39L118.22 104.39L118.42 104.39L118.62 104.39ZM82.72 58.83L82.5 59L82.29 59.18L82.07 59.34L81.86 59.51L81.65 59.66L81.45 59.81L81.25 59.96L81.05 60.1L80.85 60.24L80.67 60.37L80.48 60.49L80.3 60.62L80.13 60.73L79.96 60.84L79.79 60.95L79.63 61.04L79.48 61.14L79.33 61.23L79.19 61.31L79.06 61.39L78.93 61.47L78.81 61.53L78.7 61.6L78.59 61.66L78.49 61.71L78.4 61.76L78.39 61.76L78.36 61.78L78.35 61.79L78.32 61.8L78.3 61.81L78.27 61.83L78.2 61.86L78.15 61.89L78.12 61.9L78.12 76.56L78.15 77.58L78.24 78.6L78.39 79.59L78.59 80.56L78.84 81.52L79.14 82.45L79.5 83.36L79.9 84.24L80.35 85.1L80.85 85.93L81.39 86.73L81.97 87.49L82.59 88.22L83.25 88.92L83.95 89.58L84.68 90.2L85.45 90.78L86.24 91.32L87.07 91.82L87.93 92.27L88.81 92.67L89.72 93.03L90.65 93.33L91.61 93.59L92.58 93.79L93.58 93.93L94.59 94.02L95.61 94.05L96.06 94.04L96.51 94.02L96.96 94L97.4 93.96L97.84 93.91L98.28 93.85L98.71 93.77L99.14 93.69L99.57 93.6L99.99 93.49L100.4 93.38L100.82 93.26L101.23 93.12L101.63 92.98L102.03 92.83L102.43 92.67L102.82 92.49L103.2 92.31L103.58 92.12L103.96 91.92L104.33 91.72L104.69 91.5L105.05 91.28L105.4 91.04L105.75 90.8L106.09 90.55L106.42 90.3L106.75 90.03L97.64 90.03L97.51 90.03L97.39 90.02L97.27 90L97.16 89.98L97.04 89.95L96.93 89.91L96.82 89.87L96.72 89.82L96.62 89.77L96.52 89.71L96.42 89.64L96.33 89.57L96.24 89.5L96.16 89.42L96.08 89.34L96.01 89.25L95.94 89.16L95.87 89.06L95.81 88.96L95.76 88.86L95.71 88.75L95.67 88.65L95.63 88.53L95.6 88.42L95.58 88.3L95.56 88.18L95.55 88.06L95.55 87.94L95.55 87.82L95.56 87.7L95.58 87.58L95.6 87.46L95.63 87.35L95.67 87.24L95.71 87.13L95.76 87.02L95.81 86.92L95.87 86.82L95.94 86.72L96.01 86.63L96.08 86.54L96.16 86.46L96.24 86.38L96.33 86.31L96.42 86.24L96.52 86.17L96.62 86.12L96.72 86.06L96.82 86.01L96.93 85.97L97.04 85.93L97.16 85.9L97.27 85.88L97.39 85.86L97.51 85.85L97.64 85.85L110.42 85.85L110.6 85.56L110.77 85.26L110.94 84.97L111.1 84.66L111.26 84.36L111.41 84.05L111.55 83.74L111.69 83.43L111.83 83.11L111.95 82.79L112.07 82.46L112.19 82.14L112.3 81.81L112.4 81.47L112.49 81.14L112.58 80.8L112.66 80.46L112.74 80.11L112.81 79.77L112.87 79.42L112.92 79.07L112.97 78.72L113.01 78.36L113.04 78.01L113.07 77.65L113.09 77.29L113.1 76.92L113.1 76.56L113.1 63.78L112.76 63.89L112.41 64L112.06 64.1L111.7 64.2L111.34 64.29L110.98 64.39L110.62 64.47L110.25 64.55L109.89 64.63L109.52 64.7L109.16 64.77L108.8 64.84L108.44 64.9L108.08 64.96L107.72 65.01L107.37 65.06L107.03 65.11L106.69 65.15L106.35 65.18L106.02 65.22L105.7 65.25L105.39 65.27L105.08 65.29L104.78 65.31L104.49 65.32L104.22 65.33L103.95 65.34L103.7 65.34L102.91 65.33L102.12 65.31L101.34 65.26L100.56 65.19L99.79 65.11L99.01 65.01L98.24 64.89L97.48 64.76L96.71 64.6L95.96 64.43L95.2 64.24L94.45 64.04L93.7 63.81L92.96 63.57L92.22 63.31L91.49 63.04L90.77 62.75L90.04 62.44L89.33 62.11L88.62 61.77L87.91 61.41L87.22 61.04L86.52 60.65L85.84 60.24L85.16 59.82L84.49 59.38L83.82 58.92L83.17 58.45L82.94 58.64L82.72 58.83ZM116.46 82.48L116.28 83.07L116.09 83.65L115.88 84.23L116.15 83.84L116.41 83.32L116.67 82.67L116.92 81.89L116.62 81.89L116.46 82.48ZM117.29 77.7L119.34 77.7L119.73 77.65L120.09 77.5L120.38 77.27L120.62 76.97L120.77 76.62L120.82 76.22L120.82 65.61L120.77 65.22L120.62 64.86L120.38 64.56L120.09 64.33L119.73 64.18L119.34 64.13L117.29 64.13L117.29 77.7ZM71.49 64.18L71.14 64.33L70.84 64.56L70.61 64.86L70.46 65.22L70.41 65.61L70.41 76.22L70.46 76.62L70.61 76.97L70.84 77.27L71.14 77.5L71.49 77.65L71.88 77.7L73.94 77.7L73.94 64.13L71.88 64.13L71.49 64.18ZM74.82 53.2L74.52 54.22L74.27 55.27L74.09 56.25L73.96 57.25L73.88 58.25L73.84 59.25L74.09 59.15L74.33 59.05L74.57 58.95L74.81 58.85L74.98 58.74L75.16 58.65L75.35 58.57L75.55 58.52L75.77 58.41L75.99 58.3L76.21 58.19L76.42 58.07L77 57.75L77.79 57.26L78.77 56.59L79.87 55.75L78.75 54.69L77.66 53.58L76.6 52.41L75.57 51.2L75.17 52.19L74.82 53.2Z" id="cM57TtB0S"></path><path d="M22.57 44.17L22.72 44.18L22.87 44.2L23.02 44.22L23.17 44.24L23.31 44.27L23.45 44.31L23.59 44.34L23.72 44.39L23.85 44.43L23.98 44.49L24.11 44.54L24.23 44.6L24.34 44.67L24.45 44.74L24.55 44.81L24.64 44.89L24.73 44.97L24.81 45.05L24.88 45.14L24.95 45.23L25 45.33L25.06 45.42L25.1 45.53L25.14 45.63L30.44 62.93L30.45 62.97L30.46 63L30.47 63.03L30.47 63.06L30.48 63.09L30.48 63.11L30.49 63.13L30.49 63.16L30.49 63.18L30.5 63.2L30.5 63.21L30.5 63.23L30.5 63.24L30.49 63.36L30.48 63.47L30.45 63.57L30.41 63.68L30.36 63.78L30.3 63.88L30.23 63.98L30.15 64.08L30.06 64.17L29.95 64.26L29.84 64.35L29.71 64.44L29.58 64.52L29.44 64.6L29.29 64.67L29.15 64.74L29 64.8L28.86 64.85L28.71 64.9L28.57 64.94L28.42 64.98L28.27 65.01L28.12 65.03L27.97 65.05L27.82 65.05L27.66 65.06L27.48 65.05L27.31 65.04L27.15 65.01L27.01 64.98L26.87 64.94L26.75 64.88L26.64 64.82L26.54 64.75L26.45 64.66L26.38 64.57L26.31 64.47L26.26 64.36L26.22 64.24L25.25 60.69L19.27 60.69L18.31 64.24L18.27 64.36L18.21 64.47L18.15 64.57L18.07 64.66L17.99 64.75L17.89 64.82L17.77 64.88L17.65 64.94L17.52 64.98L17.37 65.01L17.21 65.04L17.04 65.05L16.86 65.06L16.71 65.05L16.56 65.05L16.41 65.03L16.26 65.01L16.11 64.98L15.96 64.94L15.81 64.9L15.67 64.85L15.52 64.8L15.38 64.74L15.23 64.67L15.09 64.6L14.95 64.52L14.81 64.44L14.68 64.35L14.57 64.26L14.47 64.17L14.37 64.08L14.29 63.98L14.22 63.88L14.16 63.78L14.11 63.68L14.07 63.57L14.05 63.47L14.03 63.36L14.03 63.24L14.03 63.23L14.03 63.21L14.03 63.2L14.03 63.18L14.03 63.16L14.04 63.13L14.04 63.11L14.05 63.09L14.05 63.06L14.06 63.03L14.07 63L14.07 62.97L14.08 62.93L19.36 45.63L19.39 45.53L19.44 45.42L19.49 45.33L19.55 45.23L19.62 45.14L19.69 45.05L19.77 44.97L19.86 44.89L19.95 44.81L20.05 44.74L20.16 44.67L20.27 44.6L20.39 44.54L20.52 44.49L20.65 44.43L20.78 44.39L20.91 44.34L21.05 44.31L21.19 44.27L21.33 44.24L21.48 44.22L21.63 44.2L21.78 44.18L21.93 44.17L22.09 44.16L22.25 44.16L22.41 44.16L22.57 44.17ZM24.32 57.29L22.25 49.69L20.18 57.29L24.32 57.29Z" id="fEzYVt7Uw"></path><path d="M40.64 44.37L41.1 44.43L41.55 44.51L41.98 44.6L42.39 44.72L42.79 44.87L43.17 45.03L43.53 45.22L43.88 45.42L44.21 45.65L44.52 45.9L44.81 46.18L45.08 46.48L45.32 46.8L45.54 47.15L45.73 47.53L45.89 47.93L46.03 48.35L46.15 48.8L46.24 49.28L46.3 49.78L46.34 50.3L46.35 50.85L46.35 50.99L46.34 51.54L46.3 52.07L46.23 52.57L46.14 53.05L46.02 53.5L45.87 53.93L45.7 54.33L45.5 54.71L45.27 55.06L45.02 55.39L44.74 55.69L44.44 55.97L44.11 56.23L43.76 56.46L43.4 56.67L43.02 56.86L42.63 57.03L42.21 57.17L41.78 57.29L41.34 57.39L40.87 57.47L40.39 57.53L39.89 57.56L39.37 57.57L36.57 57.57L36.57 63.7L36.56 63.8L36.55 63.91L36.53 64.01L36.5 64.1L36.45 64.19L36.4 64.28L36.35 64.36L36.28 64.43L36.2 64.51L36.11 64.58L36.02 64.64L35.92 64.7L35.8 64.76L35.69 64.81L35.57 64.86L35.45 64.9L35.33 64.94L35.2 64.97L35.07 65L34.93 65.02L34.79 65.04L34.65 65.05L34.51 65.06L34.36 65.06L34.21 65.06L34.06 65.05L33.92 65.04L33.78 65.02L33.64 65L33.51 64.97L33.38 64.94L33.26 64.9L33.14 64.86L33.02 64.81L32.91 64.76L32.8 64.7L32.69 64.64L32.6 64.58L32.51 64.51L32.43 64.43L32.37 64.36L32.31 64.28L32.26 64.19L32.22 64.1L32.19 64.01L32.16 63.91L32.15 63.8L32.14 63.7L32.14 45.66L32.15 45.57L32.16 45.49L32.17 45.4L32.19 45.32L32.22 45.24L32.26 45.16L32.3 45.08L32.35 45.01L32.4 44.93L32.46 44.86L32.53 44.79L32.6 44.73L32.68 44.66L32.76 44.61L32.84 44.55L32.93 44.51L33.03 44.47L33.12 44.43L33.22 44.4L33.33 44.37L33.44 44.36L33.55 44.34L33.67 44.33L33.79 44.33L39.66 44.33L40.16 44.34L40.64 44.37ZM36.57 54.17L39.37 54.17L40.17 53.99L40.86 53.46L41.45 52.57L41.93 51.33L41.93 51.02L41.77 49.78L41.29 48.9L40.49 48.36L39.37 48.19L36.57 48.19L36.57 54.17Z" id="gHzGeVIkJ"></path><path d="M52.05 44.67C51.61 44.44 51.09 44.33 50.49 44.33C49.88 44.33 49.37 44.44 48.93 44.67C48.5 44.9 48.28 45.23 48.28 45.66C48.28 47.47 48.28 61.89 48.28 63.7C48.28 64.13 48.5 64.47 48.93 64.7C49.37 64.94 49.88 65.06 50.49 65.06C51.09 65.06 51.61 64.94 52.05 64.7C52.48 64.47 52.7 64.13 52.7 63.7C52.7 62.5 52.7 56.48 52.7 45.66C52.56 45.15 52.34 44.82 52.05 44.67Z" id="a14LMR4ivQ"></path><path d="M59.12 36.72L120.81 36.72L120.81 110.31L59.12 110.31L59.12 36.72Z" id="bb59Q1WSY"></path><path d="M113.37 68.48L113.53 68.49L113.69 68.51L113.85 68.53L114.01 68.56L114.17 68.59L114.32 68.63L114.48 68.67L114.63 68.72L114.78 68.77L114.94 68.83L115.09 68.9L115.23 68.97L115.38 69.04L115.52 69.12L115.67 69.2L115.8 69.29L115.94 69.38L116.08 69.48L116.21 69.59L116.34 69.7L116.46 69.81L116.59 69.93L116.82 70.18L117.03 70.44L117.23 70.71L117.4 70.99L117.55 71.28L117.68 71.58L117.8 71.89L117.89 72.19L117.96 72.51L118.01 72.82L118.04 73.14L118.05 73.46L118.04 73.78L118.01 74.1L117.96 74.42L117.89 74.73L117.8 75.04L117.68 75.34L117.55 75.64L117.4 75.93L117.23 76.21L117.03 76.49L116.82 76.75L116.59 77L93.4 100.18L93.32 100.26L93.24 100.33L93.15 100.41L93.07 100.48L92.98 100.54L92.88 100.6L92.79 100.66L92.7 100.72L92.6 100.77L92.51 100.82L92.41 100.86L92.31 100.91L92.21 100.95L92.11 100.98L92.01 101.01L91.9 101.04L91.8 101.07L91.7 101.09L91.59 101.11L91.49 101.12L91.38 101.13L91.27 101.14L91.17 101.15L91.06 101.15L90.96 101.15L90.85 101.14L90.74 101.13L90.64 101.12L90.53 101.11L90.43 101.09L90.33 101.07L90.22 101.04L90.12 101.01L90.02 100.98L89.92 100.95L89.82 100.91L89.72 100.86L89.62 100.82L89.52 100.77L89.43 100.72L89.33 100.66L89.24 100.6L89.15 100.54L89.06 100.48L88.97 100.41L88.89 100.33L88.8 100.26L88.72 100.18L77.45 88.91L77.22 88.66L77 88.4L76.81 88.13L76.64 87.85L76.49 87.56L76.36 87.26L76.24 86.95L76.15 86.65L76.08 86.33L76.03 86.02L76 85.7L75.99 85.38L76 85.06L76.03 84.74L76.08 84.42L76.15 84.11L76.24 83.8L76.36 83.5L76.49 83.2L76.64 82.91L76.81 82.63L77 82.35L77.22 82.09L77.45 81.84L77.7 81.61L77.96 81.4L78.23 81.2L78.52 81.03L78.81 80.88L79.1 80.75L79.41 80.64L79.72 80.54L80.03 80.47L80.35 80.42L80.67 80.39L80.99 80.38L81.3 80.39L81.62 80.42L81.94 80.47L82.25 80.54L82.56 80.64L82.87 80.75L83.16 80.88L83.45 81.03L83.74 81.2L84.01 81.4L84.27 81.61L84.52 81.84L91.06 88.39L109.52 69.93L109.64 69.81L109.77 69.7L109.9 69.59L110.03 69.48L110.17 69.38L110.3 69.29L110.44 69.2L110.59 69.12L110.73 69.04L110.88 68.97L111.02 68.9L111.17 68.83L111.32 68.77L111.48 68.72L111.63 68.67L111.79 68.63L111.94 68.59L112.1 68.56L112.26 68.53L112.42 68.51L112.57 68.49L112.73 68.48L112.89 68.47L113.05 68.47L113.21 68.47L113.37 68.48ZM112.68 71.06L112.5 71.09L112.31 71.14L112.14 71.21L111.96 71.28L111.8 71.38L111.63 71.48L111.48 71.61L111.33 71.74L92.69 90.39L92.62 90.45L92.55 90.51L92.48 90.57L92.41 90.62L92.34 90.67L92.26 90.72L92.18 90.77L92.1 90.81L92.02 90.85L91.94 90.88L91.86 90.92L91.77 90.95L91.69 90.97L91.6 90.99L91.51 91.01L91.43 91.03L91.34 91.04L91.25 91.05L91.15 91.06L91.06 91.06L90.97 91.06L90.88 91.05L90.79 91.04L90.7 91.03L90.61 91.01L90.52 90.99L90.44 90.97L90.35 90.95L90.27 90.92L90.18 90.88L90.1 90.85L90.02 90.81L89.94 90.77L89.86 90.72L89.79 90.67L89.72 90.62L89.64 90.57L89.57 90.51L89.51 90.45L89.44 90.39L82.71 83.66L82.64 83.59L82.56 83.52L82.48 83.46L82.41 83.4L82.33 83.34L82.24 83.29L82.16 83.24L82.08 83.2L81.99 83.16L81.9 83.12L81.81 83.09L81.72 83.06L81.63 83.03L81.54 83.01L81.45 82.99L81.36 82.97L81.27 82.96L81.17 82.95L81.08 82.94L80.99 82.94L80.89 82.94L80.8 82.95L80.71 82.96L80.61 82.97L80.52 82.99L80.43 83.01L80.34 83.03L80.25 83.06L80.16 83.09L80.07 83.12L79.98 83.16L79.9 83.2L79.81 83.24L79.73 83.29L79.64 83.34L79.56 83.4L79.49 83.46L79.41 83.52L79.34 83.59L79.26 83.66L79.13 83.8L79.01 83.96L78.9 84.12L78.81 84.29L78.73 84.46L78.66 84.64L78.62 84.82L78.58 85L78.56 85.19L78.55 85.38L78.56 85.56L78.58 85.75L78.62 85.93L78.66 86.12L78.73 86.29L78.81 86.47L78.9 86.64L79.01 86.8L79.13 86.95L79.26 87.1L90.53 98.37L90.58 98.41L90.62 98.45L90.67 98.48L90.73 98.51L90.78 98.53L90.83 98.55L90.89 98.57L90.95 98.58L91 98.59L91.06 98.59L91.12 98.59L91.18 98.58L91.23 98.57L91.29 98.55L91.34 98.53L91.4 98.51L91.45 98.48L91.5 98.45L91.55 98.41L91.59 98.37L114.78 75.19L114.87 74.94L114.95 74.7L115.02 74.47L115.08 74.25L115.13 74.03L115.17 73.83L115.21 73.63L115.23 73.44L115.25 73.25L115.25 73.08L115.25 72.91L115.23 72.75L115.21 72.59L115.17 72.45L115.13 72.31L115.08 72.18L115.02 72.06L114.95 71.95L114.87 71.84L114.78 71.74L114.63 71.61L114.47 71.48L114.31 71.38L114.14 71.28L113.97 71.21L113.79 71.14L113.61 71.09L113.43 71.06L113.24 71.04L113.05 71.03L112.87 71.04L112.68 71.06Z" id="f3IQaueUhE"></path><path d="M114.78 75.19C112.46 77.5 93.91 96.05 91.59 98.37C91.3 98.66 90.82 98.66 90.53 98.37C89.41 97.24 80.39 88.23 79.26 87.1C78.31 86.15 78.31 84.6 79.26 83.66C79.74 83.18 80.36 82.94 80.99 82.94C81.61 82.94 82.23 83.18 82.71 83.66C83.38 84.33 88.77 89.71 89.44 90.39C89.87 90.82 90.45 91.06 91.06 91.06C91.68 91.06 92.25 90.82 92.69 90.39C94.55 88.52 109.47 73.6 111.33 71.74C112.28 70.79 113.83 70.79 114.78 71.74C115.73 72.69 115.73 74.23 114.78 75.19Z" id="f5SUWL8BB"></path><path d="M112.27 88.12C112.27 99.74 102.81 109.2 91.19 109.2C79.56 109.2 70.1 99.74 70.1 88.12C70.1 76.49 79.56 67.03 91.19 67.03C95.79 67.03 100.17 68.49 103.83 71.25C104.4 71.67 104.51 72.48 104.09 73.04C103.66 73.61 102.86 73.72 102.3 73.3C99.07 70.88 95.23 69.6 91.19 69.6C80.97 69.6 72.67 77.9 72.67 88.12C72.67 98.33 80.97 106.64 91.19 106.64C101.4 106.64 109.71 98.33 109.71 88.12C109.71 87.67 109.69 87.22 109.66 86.79C109.61 86.08 110.14 85.47 110.85 85.42C111.55 85.37 112.17 85.9 112.22 86.6C112.25 87.1 112.27 87.61 112.27 88.12Z" id="a3dF1cKdI"></path><path d="M7.17 70.38L47.66 70.38L47.66 110.31C31.34 110.31 21.13 110.31 17.05 110.31C11.59 110.31 7.17 105.89 7.17 100.43C7.17 96.42 7.17 86.41 7.17 70.38Z" id="aZ3Zi6sdp"></path></defs><g><g><g><use xlink:href="#cMDCyed1r" opacity="1" fill="#1e1e1e" fill-opacity="1"></use><g><use xlink:href="#cMDCyed1r" opacity="1" fill-opacity="0" stroke="#000000" stroke-width="1" stroke-opacity="0"></use></g></g><g><use xlink:href="#a2dpV59e4S" opacity="1" fill="#007ad3" fill-opacity="1"></use><g><use xlink:href="#a2dpV59e4S" opacity="1" fill-opacity="0" stroke="#000000" stroke-width="1" stroke-opacity="0"></use></g></g><g><use xlink:href="#a26SteZbLr" opacity="1" fill="#333333" fill-opacity="1"></use><g><use xlink:href="#a26SteZbLr" opacity="1" fill-opacity="0" stroke="#000000" stroke-width="1" stroke-opacity="0"></use></g></g><g><use xlink:href="#aoji9awGb" opacity="1" fill="#333333" fill-opacity="1"></use><g><use xlink:href="#aoji9awGb" opacity="1" fill-opacity="0" stroke="#000000" stroke-width="1" stroke-opacity="0"></use></g></g><g><use xlink:href="#a5VqNIwhP" opacity="1" fill="#000000" fill-opacity="1"></use><g><use xlink:href="#a5VqNIwhP" opacity="1" fill-opacity="0" stroke="#000000" stroke-width="1" stroke-opacity="0"></use></g></g><g><use xlink:href="#a3QaRwAFo" opacity="1" fill="#000000" fill-opacity="1"></use><g><use xlink:href="#a3QaRwAFo" opacity="1" fill-opacity="0" stroke="#000000" stroke-width="1" stroke-opacity="0"></use></g></g><g><use xlink:href="#ajaUx6i95" opacity="1" fill="#000000" fill-opacity="1"></use><g><use xlink:href="#ajaUx6i95" opacity="1" fill-opacity="0" stroke="#000000" stroke-width="1" stroke-opacity="0"></use></g></g><g><use xlink:href="#j421DxMK5m" opacity="1" fill="#000000" fill-opacity="1"></use><g><use xlink:href="#j421DxMK5m" opacity="1" fill-opacity="0" stroke="#000000" stroke-width="1" stroke-opacity="0"></use></g></g><g><use xlink:href="#cRk9F98x2" opacity="1" fill="#000000" fill-opacity="1"></use><g><use xlink:href="#cRk9F98x2" opacity="1" fill-opacity="0" stroke="#000000" stroke-width="1" stroke-opacity="0"></use></g></g><g><use xlink:href="#cM57TtB0S" opacity="1" fill="#000000" fill-opacity="1"></use><g><use xlink:href="#cM57TtB0S" opacity="1" fill-opacity="0" stroke="#000000" stroke-width="1" stroke-opacity="0"></use></g></g><g><use xlink:href="#fEzYVt7Uw" opacity="1" fill="#c8c8c8" fill-opacity="1"></use><g><use xlink:href="#fEzYVt7Uw" opacity="1" fill-opacity="0" stroke="#000000" stroke-width="1" stroke-opacity="0"></use></g></g><g><use xlink:href="#gHzGeVIkJ" opacity="1" fill="#c8c8c8" fill-opacity="1"></use><g><use xlink:href="#gHzGeVIkJ" opacity="1" fill-opacity="0" stroke="#000000" stroke-width="1" stroke-opacity="0"></use></g></g><g><use xlink:href="#a14LMR4ivQ" opacity="1" fill="#c8c8c8" fill-opacity="1"></use><g><use xlink:href="#a14LMR4ivQ" opacity="1" fill-opacity="0" stroke="#000000" stroke-width="1" stroke-opacity="0"></use></g></g><g><use xlink:href="#bb59Q1WSY" opacity="1" fill="#1e1e1e" fill-opacity="1"></use></g><g><use xlink:href="#f3IQaueUhE" opacity="1" fill="#c8c8c8" fill-opacity="1"></use><g><use xlink:href="#f3IQaueUhE" opacity="1" fill-opacity="0" stroke="#000000" stroke-width="1" stroke-opacity="0"></use></g></g><g><use xlink:href="#f5SUWL8BB" opacity="1" fill="#50cd8c" fill-opacity="1"></use><g><use xlink:href="#f5SUWL8BB" opacity="1" fill-opacity="0" stroke="#000000" stroke-width="1" stroke-opacity="0"></use></g></g><g><use xlink:href="#a3dF1cKdI" opacity="1" fill="#c8c8c8" fill-opacity="1"></use><g><use xlink:href="#a3dF1cKdI" opacity="1" fill-opacity="0" stroke="#000000" stroke-width="1" stroke-opacity="0"></use></g></g><g><use xlink:href="#aZ3Zi6sdp" opacity="1" fill="#1e1e1e" fill-opacity="1"></use></g></g></g></svg>